<mxfile host="app.diagrams.net" modified="2023-08-07T05:13:51.691Z" agent="Mozilla/5.0 (Macintosh; Intel Mac OS X 10_15_7) AppleWebKit/537.36 (KHTML, like Gecko) Chrome/115.0.0.0 Safari/537.36" version="21.6.6" etag="lp3KuVSE6K6Cuy3PReqi" type="github">
  <diagram name="第 1 页" id="vOEv1i1AHXt64n-Rezva">
    <mxGraphModel>
      <root>
        <mxCell id="0" />
        <mxCell id="1" parent="0" />
      </root>
    </mxGraphModel>
  </diagram>
</mxfile>
